{
	"patcher" : 	{
		"fileversion" : 1,
		"appversion" : 		{
			"major" : 7,
			"minor" : 3,
			"revision" : 4,
			"architecture" : "x86",
			"modernui" : 1
		}
,
		"rect" : [ 42.0, 85.0, 1212.0, 569.0 ],
		"bgcolor" : [ 0.0, 0.0, 0.0, 1.0 ],
		"bglocked" : 0,
		"openinpresentation" : 1,
		"default_fontsize" : 12.0,
		"default_fontface" : 0,
		"default_fontname" : "Arial",
		"gridonopen" : 1,
		"gridsize" : [ 15.0, 15.0 ],
		"gridsnaponopen" : 1,
		"objectsnaponopen" : 1,
		"statusbarvisible" : 2,
		"toolbarvisible" : 1,
		"lefttoolbarpinned" : 0,
		"toptoolbarpinned" : 0,
		"righttoolbarpinned" : 0,
		"bottomtoolbarpinned" : 0,
		"toolbars_unpinned_last_save" : 0,
		"tallnewobj" : 0,
		"boxanimatetime" : 200,
		"enablehscroll" : 1,
		"enablevscroll" : 1,
		"devicewidth" : 0.0,
		"description" : "",
		"digest" : "",
		"tags" : "",
		"style" : "Kramer",
		"subpatcher_template" : "",
		"boxes" : [ 			{
				"box" : 				{
					"id" : "obj-28",
					"maxclass" : "message",
					"numinlets" : 2,
					"numoutlets" : 1,
					"outlettype" : [ "" ],
					"patching_rect" : [ 70.166626, 160.0, 75.0, 22.0 ],
					"presentation" : 1,
					"presentation_rect" : [ 74.166626, 161.0, 75.0, 22.0 ],
					"style" : "",
					"text" : "set sample1"
				}

			}
, 			{
				"box" : 				{
					"bgcolor" : [ 0.501961, 0.717647, 0.764706, 1.0 ],
					"buffername" : "sample1",
					"gridcolor" : [ 0.352941, 0.337255, 0.521569, 1.0 ],
					"id" : "obj-73",
					"maxclass" : "waveform~",
					"numinlets" : 5,
					"numoutlets" : 6,
					"outlettype" : [ "float", "float", "float", "float", "list", "" ],
					"patching_rect" : [ 27.0, 192.0, 150.0, 75.0 ],
					"presentation" : 1,
					"presentation_rect" : [ 31.0, 193.0, 150.0, 75.0 ],
					"selectioncolor" : [ 0.313726, 0.498039, 0.807843, 0.0 ],
					"setunit" : 1,
					"style" : "",
					"waveformcolor" : [ 0.082353, 0.25098, 0.431373, 1.0 ]
				}

			}
, 			{
				"box" : 				{
					"id" : "obj-27",
					"maxclass" : "newobj",
					"numinlets" : 1,
					"numoutlets" : 1,
					"outlettype" : [ "" ],
					"patching_rect" : [ 27.0, 102.0, 107.0, 22.0 ],
					"presentation" : 1,
					"presentation_rect" : [ 31.0, 103.0, 107.0, 22.0 ],
					"style" : "",
					"text" : "prepend replace"
				}

			}
, 			{
				"box" : 				{
					"decodemode" : 1,
					"id" : "obj-26",
					"maxclass" : "live.drop",
					"numinlets" : 1,
					"numoutlets" : 2,
					"outlettype" : [ "", "" ],
					"parameter_enable" : 1,
					"patching_rect" : [ 27.0, 25.0, 165.0, 60.0 ],
					"presentation" : 1,
					"presentation_rect" : [ 31.0, 26.0, 165.0, 60.0 ],
					"saved_attribute_attributes" : 					{
						"valueof" : 						{
							"parameter_longname" : "live.drop",
							"parameter_shortname" : "live.drop",
							"parameter_type" : 4,
							"parameter_invisible" : 1
						}

					}
,
					"varname" : "live.drop"
				}

			}
, 			{
				"box" : 				{
					"id" : "obj-18",
					"maxclass" : "message",
					"numinlets" : 2,
					"numoutlets" : 1,
					"outlettype" : [ "" ],
					"patching_rect" : [ 148.0, 102.0, 44.0, 22.0 ],
					"presentation" : 1,
					"presentation_rect" : [ 152.0, 103.0, 44.0, 22.0 ],
					"style" : "",
					"text" : "open"
				}

			}
, 			{
				"box" : 				{
					"id" : "obj-19",
					"maxclass" : "message",
					"numinlets" : 2,
					"numoutlets" : 1,
					"outlettype" : [ "" ],
					"patching_rect" : [ 148.0, 132.0, 35.0, 22.0 ],
					"presentation" : 1,
					"presentation_rect" : [ 152.0, 133.0, 35.0, 22.0 ],
					"style" : "",
					"text" : "read"
				}

			}
, 			{
				"box" : 				{
					"id" : "obj-20",
					"maxclass" : "newobj",
					"numinlets" : 1,
					"numoutlets" : 2,
					"outlettype" : [ "float", "bang" ],
					"patching_rect" : [ 27.0, 132.0, 111.0, 22.0 ],
					"presentation" : 1,
					"presentation_rect" : [ 31.0, 133.0, 111.0, 22.0 ],
					"style" : "",
					"text" : "buffer~ sample1 -1"
				}

			}
, 			{
				"box" : 				{
					"id" : "obj-49",
					"maxclass" : "panel",
					"numinlets" : 1,
					"numoutlets" : 0,
					"patching_rect" : [ 12.0, 10.0, 195.0, 270.0 ],
					"presentation" : 1,
					"presentation_rect" : [ 16.0, 11.0, 195.0, 270.0 ],
					"style" : ""
				}

			}
 ],
		"lines" : [ 			{
				"patchline" : 				{
					"destination" : [ "obj-20", 0 ],
					"midpoints" : [ 157.5, 127.0, 36.5, 127.0 ],
					"source" : [ "obj-18", 0 ]
				}

			}
, 			{
				"patchline" : 				{
					"destination" : [ "obj-20", 0 ],
					"midpoints" : [ 157.5, 157.0, 140.0, 157.0, 140.0, 127.0, 36.5, 127.0 ],
					"source" : [ "obj-19", 0 ]
				}

			}
, 			{
				"patchline" : 				{
					"destination" : [ "obj-28", 0 ],
					"midpoints" : [ 128.5, 157.0, 79.666626, 157.0 ],
					"source" : [ "obj-20", 1 ]
				}

			}
, 			{
				"patchline" : 				{
					"destination" : [ "obj-27", 0 ],
					"midpoints" : [ 36.5, 88.0, 36.5, 88.0 ],
					"source" : [ "obj-26", 0 ]
				}

			}
, 			{
				"patchline" : 				{
					"destination" : [ "obj-20", 0 ],
					"midpoints" : [ 36.5, 127.0, 36.5, 127.0 ],
					"source" : [ "obj-27", 0 ]
				}

			}
, 			{
				"patchline" : 				{
					"destination" : [ "obj-73", 0 ],
					"midpoints" : [ 79.666626, 184.0, 36.5, 184.0 ],
					"source" : [ "obj-28", 0 ]
				}

			}
 ],
		"styles" : [ 			{
				"name" : "Kramer",
				"default" : 				{
					"textcolor" : [ 1.0, 1.0, 1.0, 1.0 ]
				}
,
				"parentstyle" : "velvet",
				"multi" : 0
			}
 ]
	}

}
